<mxfile host="Electron" modified="2024-06-05T07:56:56.981Z" agent="Mozilla/5.0 (Macintosh; Intel Mac OS X 10_15_7) AppleWebKit/537.36 (KHTML, like Gecko) draw.io/24.4.13 Chrome/124.0.6367.207 Electron/30.0.6 Safari/537.36" etag="oaTz_alExZNDrnkfGP4z" version="24.4.13" type="device" pages="3">
  <diagram id="e4xSNe2rwO2vYDo-B9NY" name="Client.Register">
    <mxGraphModel dx="1434" dy="784" grid="1" gridSize="10" guides="1" tooltips="1" connect="1" arrows="1" fold="1" page="1" pageScale="1" pageWidth="827" pageHeight="1169" math="0" shadow="0">
      <root>
        <mxCell id="0" />
        <mxCell id="1" parent="0" />
        <mxCell id="zKBPUxuciQu65vhIFHAe-1" value="C(Client)" style="swimlane;whiteSpace=wrap" vertex="1" parent="1">
          <mxGeometry x="164.5" y="128" width="275.5" height="572" as="geometry" />
        </mxCell>
        <mxCell id="zKBPUxuciQu65vhIFHAe-2" value="" style="ellipse;shape=startState;fillColor=#000000;strokeColor=#ff0000;" vertex="1" parent="zKBPUxuciQu65vhIFHAe-1">
          <mxGeometry x="128" y="40" width="30" height="30" as="geometry" />
        </mxCell>
        <mxCell id="zKBPUxuciQu65vhIFHAe-53" value="NO" style="edgeStyle=orthogonalEdgeStyle;rounded=0;orthogonalLoop=1;jettySize=auto;html=1;" edge="1" parent="zKBPUxuciQu65vhIFHAe-1" source="zKBPUxuciQu65vhIFHAe-49" target="zKBPUxuciQu65vhIFHAe-50">
          <mxGeometry relative="1" as="geometry" />
        </mxCell>
        <mxCell id="zKBPUxuciQu65vhIFHAe-56" style="edgeStyle=orthogonalEdgeStyle;rounded=0;orthogonalLoop=1;jettySize=auto;html=1;entryX=0;entryY=0.5;entryDx=0;entryDy=0;" edge="1" parent="zKBPUxuciQu65vhIFHAe-1" source="zKBPUxuciQu65vhIFHAe-49" target="zKBPUxuciQu65vhIFHAe-46">
          <mxGeometry relative="1" as="geometry">
            <mxPoint x="63.5" y="532" as="targetPoint" />
            <Array as="points">
              <mxPoint x="44" y="132" />
              <mxPoint x="44" y="547" />
            </Array>
          </mxGeometry>
        </mxCell>
        <mxCell id="zKBPUxuciQu65vhIFHAe-57" value="YES" style="edgeLabel;html=1;align=center;verticalAlign=middle;resizable=0;points=[];" vertex="1" connectable="0" parent="zKBPUxuciQu65vhIFHAe-56">
          <mxGeometry x="-0.8112" y="1" relative="1" as="geometry">
            <mxPoint as="offset" />
          </mxGeometry>
        </mxCell>
        <mxCell id="zKBPUxuciQu65vhIFHAe-49" value="&lt;div style=&quot;background-color:#ffffff;color:#080808&quot;&gt;&lt;pre style=&quot;font-family:&#39;Fira Code&#39;,monospace;font-size:9.8pt;&quot;&gt;isKeyInit&lt;/pre&gt;&lt;/div&gt;" style="rhombus;whiteSpace=wrap;html=1;" vertex="1" parent="zKBPUxuciQu65vhIFHAe-1">
          <mxGeometry x="103.5" y="92" width="80" height="80" as="geometry" />
        </mxCell>
        <mxCell id="zKBPUxuciQu65vhIFHAe-54" value="" style="edgeStyle=orthogonalEdgeStyle;rounded=0;orthogonalLoop=1;jettySize=auto;html=1;" edge="1" parent="zKBPUxuciQu65vhIFHAe-1" source="zKBPUxuciQu65vhIFHAe-50" target="zKBPUxuciQu65vhIFHAe-51">
          <mxGeometry relative="1" as="geometry" />
        </mxCell>
        <mxCell id="zKBPUxuciQu65vhIFHAe-50" value="&lt;div style=&quot;background-color:#ffffff;color:#080808&quot;&gt;&lt;pre style=&quot;font-family:&#39;Fira Code&#39;,monospace;font-size:9.8pt;&quot;&gt;registerClient&lt;/pre&gt;&lt;/div&gt;" style="rounded=1;whiteSpace=wrap;html=1;" vertex="1" parent="zKBPUxuciQu65vhIFHAe-1">
          <mxGeometry x="83.5" y="212" width="120" height="60" as="geometry" />
        </mxCell>
        <mxCell id="zKBPUxuciQu65vhIFHAe-55" value="" style="edgeStyle=orthogonalEdgeStyle;rounded=0;orthogonalLoop=1;jettySize=auto;html=1;" edge="1" parent="zKBPUxuciQu65vhIFHAe-1" source="zKBPUxuciQu65vhIFHAe-51" target="zKBPUxuciQu65vhIFHAe-52">
          <mxGeometry relative="1" as="geometry" />
        </mxCell>
        <mxCell id="zKBPUxuciQu65vhIFHAe-63" value="" style="edgeStyle=orthogonalEdgeStyle;rounded=0;orthogonalLoop=1;jettySize=auto;html=1;" edge="1" parent="zKBPUxuciQu65vhIFHAe-1" source="zKBPUxuciQu65vhIFHAe-51">
          <mxGeometry relative="1" as="geometry">
            <mxPoint x="43.5" y="352" as="targetPoint" />
          </mxGeometry>
        </mxCell>
        <mxCell id="zKBPUxuciQu65vhIFHAe-51" value="is Agreement Reached" style="rhombus;whiteSpace=wrap;" vertex="1" parent="zKBPUxuciQu65vhIFHAe-1">
          <mxGeometry x="103.5" y="312" width="80" height="80" as="geometry" />
        </mxCell>
        <mxCell id="zKBPUxuciQu65vhIFHAe-60" value="" style="edgeStyle=orthogonalEdgeStyle;rounded=0;orthogonalLoop=1;jettySize=auto;html=1;" edge="1" parent="zKBPUxuciQu65vhIFHAe-1" source="zKBPUxuciQu65vhIFHAe-52" target="zKBPUxuciQu65vhIFHAe-46">
          <mxGeometry relative="1" as="geometry" />
        </mxCell>
        <mxCell id="zKBPUxuciQu65vhIFHAe-52" value="&lt;div style=&quot;background-color:#ffffff;color:#080808&quot;&gt;&lt;pre style=&quot;font-family:&#39;Fira Code&#39;,monospace;font-size:9.8pt;&quot;&gt;setPrepareDirty&lt;/pre&gt;&lt;/div&gt;" style="rounded=1;whiteSpace=wrap;html=1;" vertex="1" parent="zKBPUxuciQu65vhIFHAe-1">
          <mxGeometry x="83.5" y="440" width="120" height="60" as="geometry" />
        </mxCell>
        <mxCell id="zKBPUxuciQu65vhIFHAe-46" value="" style="ellipse;shape=endState;fillColor=#000000;strokeColor=#ff0000" vertex="1" parent="zKBPUxuciQu65vhIFHAe-1">
          <mxGeometry x="128.5" y="532" width="30" height="30" as="geometry" />
        </mxCell>
        <mxCell id="4FP9M70FjlYrYOTmqCSV-2" value="" style="edgeStyle=orthogonalEdgeStyle;rounded=0;orthogonalLoop=1;jettySize=auto;html=1;" edge="1" parent="zKBPUxuciQu65vhIFHAe-1">
          <mxGeometry relative="1" as="geometry">
            <mxPoint x="142.5" y="62" as="sourcePoint" />
            <mxPoint x="142.5" y="92" as="targetPoint" />
          </mxGeometry>
        </mxCell>
        <mxCell id="zKBPUxuciQu65vhIFHAe-23" value="R(Center)" style="swimlane;whiteSpace=wrap" vertex="1" parent="1">
          <mxGeometry x="440.5" y="128" width="280" height="572" as="geometry">
            <mxRectangle x="440.5" y="128" width="90" height="30" as="alternateBounds" />
          </mxGeometry>
        </mxCell>
        <mxCell id="4FP9M70FjlYrYOTmqCSV-10" value="" style="edgeStyle=orthogonalEdgeStyle;rounded=0;orthogonalLoop=1;jettySize=auto;html=1;entryX=0.5;entryY=0;entryDx=0;entryDy=0;" edge="1" parent="zKBPUxuciQu65vhIFHAe-23" source="4FP9M70FjlYrYOTmqCSV-1" target="4FP9M70FjlYrYOTmqCSV-4">
          <mxGeometry relative="1" as="geometry" />
        </mxCell>
        <mxCell id="4FP9M70FjlYrYOTmqCSV-1" value="" style="ellipse;shape=startState;fillColor=#000000;strokeColor=#ff0000;" vertex="1" parent="zKBPUxuciQu65vhIFHAe-23">
          <mxGeometry x="125" y="40" width="30" height="30" as="geometry" />
        </mxCell>
        <mxCell id="4FP9M70FjlYrYOTmqCSV-12" value="" style="edgeStyle=orthogonalEdgeStyle;rounded=0;orthogonalLoop=1;jettySize=auto;html=1;" edge="1" parent="zKBPUxuciQu65vhIFHAe-23" source="4FP9M70FjlYrYOTmqCSV-3" target="4FP9M70FjlYrYOTmqCSV-7">
          <mxGeometry relative="1" as="geometry" />
        </mxCell>
        <mxCell id="4FP9M70FjlYrYOTmqCSV-21" value="YES" style="edgeLabel;html=1;align=center;verticalAlign=middle;resizable=0;points=[];" vertex="1" connectable="0" parent="4FP9M70FjlYrYOTmqCSV-12">
          <mxGeometry x="-0.0638" y="2" relative="1" as="geometry">
            <mxPoint as="offset" />
          </mxGeometry>
        </mxCell>
        <mxCell id="4FP9M70FjlYrYOTmqCSV-20" style="edgeStyle=orthogonalEdgeStyle;rounded=0;orthogonalLoop=1;jettySize=auto;html=1;entryX=0;entryY=0.75;entryDx=0;entryDy=0;" edge="1" parent="zKBPUxuciQu65vhIFHAe-23" source="4FP9M70FjlYrYOTmqCSV-3" target="4FP9M70FjlYrYOTmqCSV-6">
          <mxGeometry relative="1" as="geometry">
            <Array as="points">
              <mxPoint x="40" y="219" />
              <mxPoint x="40" y="417" />
            </Array>
          </mxGeometry>
        </mxCell>
        <mxCell id="4FP9M70FjlYrYOTmqCSV-22" value="NO" style="edgeLabel;html=1;align=center;verticalAlign=middle;resizable=0;points=[];" vertex="1" connectable="0" parent="4FP9M70FjlYrYOTmqCSV-20">
          <mxGeometry x="-0.8641" y="-1" relative="1" as="geometry">
            <mxPoint as="offset" />
          </mxGeometry>
        </mxCell>
        <mxCell id="4FP9M70FjlYrYOTmqCSV-3" value="client is null" style="rhombus;whiteSpace=wrap;html=1;" vertex="1" parent="zKBPUxuciQu65vhIFHAe-23">
          <mxGeometry x="100" y="179" width="80" height="80" as="geometry" />
        </mxCell>
        <mxCell id="4FP9M70FjlYrYOTmqCSV-11" value="" style="edgeStyle=orthogonalEdgeStyle;rounded=0;orthogonalLoop=1;jettySize=auto;html=1;" edge="1" parent="zKBPUxuciQu65vhIFHAe-23" source="4FP9M70FjlYrYOTmqCSV-4" target="4FP9M70FjlYrYOTmqCSV-3">
          <mxGeometry relative="1" as="geometry" />
        </mxCell>
        <mxCell id="4FP9M70FjlYrYOTmqCSV-4" value="client = get client with name" style="rounded=1;whiteSpace=wrap;html=1;" vertex="1" parent="zKBPUxuciQu65vhIFHAe-23">
          <mxGeometry x="80.5" y="89" width="120" height="60" as="geometry" />
        </mxCell>
        <mxCell id="4FP9M70FjlYrYOTmqCSV-6" value="register key" style="rounded=1;whiteSpace=wrap;html=1;" vertex="1" parent="zKBPUxuciQu65vhIFHAe-23">
          <mxGeometry x="79.5" y="372" width="120" height="60" as="geometry" />
        </mxCell>
        <mxCell id="4FP9M70FjlYrYOTmqCSV-15" value="" style="edgeStyle=orthogonalEdgeStyle;rounded=0;orthogonalLoop=1;jettySize=auto;html=1;" edge="1" parent="zKBPUxuciQu65vhIFHAe-23">
          <mxGeometry relative="1" as="geometry">
            <mxPoint x="138.5" y="342" as="sourcePoint" />
            <mxPoint x="139.5" y="372" as="targetPoint" />
          </mxGeometry>
        </mxCell>
        <mxCell id="4FP9M70FjlYrYOTmqCSV-7" value="register client" style="rounded=1;whiteSpace=wrap;html=1;" vertex="1" parent="zKBPUxuciQu65vhIFHAe-23">
          <mxGeometry x="79.5" y="282" width="120" height="60" as="geometry" />
        </mxCell>
        <mxCell id="4FP9M70FjlYrYOTmqCSV-17" value="" style="edgeStyle=orthogonalEdgeStyle;rounded=0;orthogonalLoop=1;jettySize=auto;html=1;" edge="1" parent="zKBPUxuciQu65vhIFHAe-23" source="4FP9M70FjlYrYOTmqCSV-8" target="4FP9M70FjlYrYOTmqCSV-9">
          <mxGeometry relative="1" as="geometry" />
        </mxCell>
        <mxCell id="4FP9M70FjlYrYOTmqCSV-8" value="return&amp;nbsp;&lt;span style=&quot;font-family: &amp;quot;Fira Code&amp;quot;, monospace; font-size: 9.8pt; background-color: rgb(255, 255, 255); color: rgb(8, 8, 8);&quot;&gt;is Agreement Reached&lt;/span&gt;" style="rounded=1;whiteSpace=wrap;html=1;" vertex="1" parent="zKBPUxuciQu65vhIFHAe-23">
          <mxGeometry x="80.5" y="452" width="120" height="60" as="geometry" />
        </mxCell>
        <mxCell id="4FP9M70FjlYrYOTmqCSV-9" value="" style="ellipse;shape=endState;fillColor=#000000;strokeColor=#ff0000" vertex="1" parent="zKBPUxuciQu65vhIFHAe-23">
          <mxGeometry x="125.5" y="532" width="30" height="30" as="geometry" />
        </mxCell>
        <mxCell id="4FP9M70FjlYrYOTmqCSV-19" value="" style="edgeStyle=orthogonalEdgeStyle;rounded=0;orthogonalLoop=1;jettySize=auto;html=1;" edge="1" parent="zKBPUxuciQu65vhIFHAe-23">
          <mxGeometry relative="1" as="geometry">
            <mxPoint x="140" y="432" as="sourcePoint" />
            <mxPoint x="140" y="452" as="targetPoint" />
          </mxGeometry>
        </mxCell>
        <mxCell id="zKBPUxuciQu65vhIFHAe-42" value="S(cache.simpledemo.CLI)" style="swimlane;whiteSpace=wrap" vertex="1" parent="1">
          <mxGeometry x="721.5" y="128" width="280" height="572" as="geometry" />
        </mxCell>
        <mxCell id="pCzn_DUp9kQx-t3wHIik-6" value="" style="edgeStyle=orthogonalEdgeStyle;rounded=0;orthogonalLoop=1;jettySize=auto;html=1;" edge="1" parent="zKBPUxuciQu65vhIFHAe-42" source="pCzn_DUp9kQx-t3wHIik-1" target="pCzn_DUp9kQx-t3wHIik-3">
          <mxGeometry relative="1" as="geometry" />
        </mxCell>
        <mxCell id="pCzn_DUp9kQx-t3wHIik-1" value="" style="ellipse;shape=startState;fillColor=#000000;strokeColor=#ff0000;" vertex="1" parent="zKBPUxuciQu65vhIFHAe-42">
          <mxGeometry x="125" y="40" width="30" height="30" as="geometry" />
        </mxCell>
        <mxCell id="pCzn_DUp9kQx-t3wHIik-7" value="" style="edgeStyle=orthogonalEdgeStyle;rounded=0;orthogonalLoop=1;jettySize=auto;html=1;" edge="1" parent="zKBPUxuciQu65vhIFHAe-42" source="pCzn_DUp9kQx-t3wHIik-3" target="pCzn_DUp9kQx-t3wHIik-5">
          <mxGeometry relative="1" as="geometry" />
        </mxCell>
        <mxCell id="pCzn_DUp9kQx-t3wHIik-3" value="register center and key" style="rounded=1;whiteSpace=wrap;html=1;" vertex="1" parent="zKBPUxuciQu65vhIFHAe-42">
          <mxGeometry x="80.5" y="102" width="120" height="60" as="geometry" />
        </mxCell>
        <mxCell id="pCzn_DUp9kQx-t3wHIik-5" value="" style="ellipse;shape=endState;fillColor=#000000;strokeColor=#ff0000" vertex="1" parent="zKBPUxuciQu65vhIFHAe-42">
          <mxGeometry x="125.5" y="202" width="30" height="30" as="geometry" />
        </mxCell>
        <mxCell id="4FP9M70FjlYrYOTmqCSV-25" style="edgeStyle=orthogonalEdgeStyle;rounded=0;orthogonalLoop=1;jettySize=auto;html=1;entryX=0;entryY=0.5;entryDx=0;entryDy=0;" edge="1" parent="1" source="zKBPUxuciQu65vhIFHAe-50" target="4FP9M70FjlYrYOTmqCSV-1">
          <mxGeometry relative="1" as="geometry" />
        </mxCell>
        <mxCell id="4FP9M70FjlYrYOTmqCSV-26" value="registerClient" style="edgeLabel;align=center;verticalAlign=middle;resizable=0;points=[];" vertex="1" connectable="0" parent="4FP9M70FjlYrYOTmqCSV-25">
          <mxGeometry x="0.6801" y="1" relative="1" as="geometry">
            <mxPoint as="offset" />
          </mxGeometry>
        </mxCell>
        <mxCell id="pCzn_DUp9kQx-t3wHIik-8" style="edgeStyle=orthogonalEdgeStyle;rounded=0;orthogonalLoop=1;jettySize=auto;html=1;entryX=0;entryY=0.5;entryDx=0;entryDy=0;" edge="1" parent="1" source="4FP9M70FjlYrYOTmqCSV-6" target="pCzn_DUp9kQx-t3wHIik-1">
          <mxGeometry relative="1" as="geometry" />
        </mxCell>
        <mxCell id="_jpN2zEDaZLYkizdIhVH-1" value="? need" style="edgeLabel;html=1;align=center;verticalAlign=middle;resizable=0;points=[];fontColor=#FF3333;" vertex="1" connectable="0" parent="pCzn_DUp9kQx-t3wHIik-8">
          <mxGeometry x="0.7091" relative="1" as="geometry">
            <mxPoint as="offset" />
          </mxGeometry>
        </mxCell>
      </root>
    </mxGraphModel>
  </diagram>
  <diagram name="client.get" id="e7e014a7-5840-1c2e-5031-d8a46d1fe8dd">
    <mxGraphModel dx="1434" dy="784" grid="1" gridSize="10" guides="1" tooltips="1" connect="1" arrows="1" fold="1" page="1" pageScale="1" pageWidth="1169" pageHeight="826" background="none" math="0" shadow="0">
      <root>
        <mxCell id="0" />
        <mxCell id="1" parent="0" />
        <mxCell id="k82Oito8XOEwwU88DEr8-1" value="C(Client)" style="swimlane;whiteSpace=wrap" vertex="1" parent="1">
          <mxGeometry x="164.5" y="128" width="275.5" height="572" as="geometry" />
        </mxCell>
        <mxCell id="k82Oito8XOEwwU88DEr8-18" value="" style="edgeStyle=orthogonalEdgeStyle;rounded=0;orthogonalLoop=1;jettySize=auto;html=1;" edge="1" parent="k82Oito8XOEwwU88DEr8-1" source="k82Oito8XOEwwU88DEr8-3" target="k82Oito8XOEwwU88DEr8-9">
          <mxGeometry relative="1" as="geometry" />
        </mxCell>
        <mxCell id="k82Oito8XOEwwU88DEr8-3" value="" style="ellipse;shape=startState;fillColor=#000000;strokeColor=#ff0000;" vertex="1" parent="k82Oito8XOEwwU88DEr8-1">
          <mxGeometry x="128.5" y="32" width="30" height="30" as="geometry" />
        </mxCell>
        <mxCell id="k82Oito8XOEwwU88DEr8-8" value="" style="edgeStyle=orthogonalEdgeStyle;rounded=0;orthogonalLoop=1;jettySize=auto;html=1;" edge="1" parent="k82Oito8XOEwwU88DEr8-1" source="k82Oito8XOEwwU88DEr8-9" target="k82Oito8XOEwwU88DEr8-12">
          <mxGeometry relative="1" as="geometry" />
        </mxCell>
        <mxCell id="k82Oito8XOEwwU88DEr8-9" value="value = Cache.get" style="rounded=1;whiteSpace=wrap;" vertex="1" parent="k82Oito8XOEwwU88DEr8-1">
          <mxGeometry x="83.5" y="102" width="120" height="60" as="geometry" />
        </mxCell>
        <mxCell id="k82Oito8XOEwwU88DEr8-10" value="YES" style="edgeStyle=orthogonalEdgeStyle;rounded=0;orthogonalLoop=1;jettySize=auto;html=1;" edge="1" parent="k82Oito8XOEwwU88DEr8-1" source="k82Oito8XOEwwU88DEr8-12" target="k82Oito8XOEwwU88DEr8-14">
          <mxGeometry relative="1" as="geometry" />
        </mxCell>
        <mxCell id="k82Oito8XOEwwU88DEr8-11" value="" style="edgeStyle=orthogonalEdgeStyle;rounded=0;orthogonalLoop=1;jettySize=auto;html=1;entryX=0;entryY=0.5;entryDx=0;entryDy=0;" edge="1" parent="k82Oito8XOEwwU88DEr8-1" source="k82Oito8XOEwwU88DEr8-12" target="k82Oito8XOEwwU88DEr8-15">
          <mxGeometry relative="1" as="geometry">
            <mxPoint x="43.5" y="282" as="targetPoint" />
            <Array as="points">
              <mxPoint x="56" y="242" />
              <mxPoint x="56" y="547" />
            </Array>
          </mxGeometry>
        </mxCell>
        <mxCell id="k82Oito8XOEwwU88DEr8-22" value="NO" style="edgeLabel;html=1;align=center;verticalAlign=middle;resizable=0;points=[];" vertex="1" connectable="0" parent="k82Oito8XOEwwU88DEr8-11">
          <mxGeometry x="-0.8871" relative="1" as="geometry">
            <mxPoint as="offset" />
          </mxGeometry>
        </mxCell>
        <mxCell id="k82Oito8XOEwwU88DEr8-12" value="value Is Null" style="rhombus;whiteSpace=wrap;" vertex="1" parent="k82Oito8XOEwwU88DEr8-1">
          <mxGeometry x="103.5" y="202" width="80" height="80" as="geometry" />
        </mxCell>
        <mxCell id="k82Oito8XOEwwU88DEr8-13" value="" style="edgeStyle=orthogonalEdgeStyle;rounded=0;orthogonalLoop=1;jettySize=auto;html=1;" edge="1" parent="k82Oito8XOEwwU88DEr8-1" source="k82Oito8XOEwwU88DEr8-14" target="k82Oito8XOEwwU88DEr8-15">
          <mxGeometry relative="1" as="geometry" />
        </mxCell>
        <mxCell id="k82Oito8XOEwwU88DEr8-14" value="value = exec biz method" style="rounded=1;whiteSpace=wrap;" vertex="1" parent="k82Oito8XOEwwU88DEr8-1">
          <mxGeometry x="83.5" y="322" width="120" height="60" as="geometry" />
        </mxCell>
        <mxCell id="k82Oito8XOEwwU88DEr8-15" value="" style="ellipse;shape=endState;fillColor=#000000;strokeColor=#ff0000" vertex="1" parent="k82Oito8XOEwwU88DEr8-1">
          <mxGeometry x="128.5" y="532" width="30" height="30" as="geometry" />
        </mxCell>
        <mxCell id="k82Oito8XOEwwU88DEr8-19" value="put value to center" style="rounded=1;whiteSpace=wrap;html=1;" vertex="1" parent="k82Oito8XOEwwU88DEr8-1">
          <mxGeometry x="83.5" y="422" width="120" height="60" as="geometry" />
        </mxCell>
        <mxCell id="k82Oito8XOEwwU88DEr8-16" value="R(Center)" style="swimlane;whiteSpace=wrap" vertex="1" parent="1">
          <mxGeometry x="440.5" y="128" width="279.5" height="572" as="geometry">
            <mxRectangle x="440.5" y="128" width="90" height="30" as="alternateBounds" />
          </mxGeometry>
        </mxCell>
        <mxCell id="k82Oito8XOEwwU88DEr8-36" value="" style="edgeStyle=orthogonalEdgeStyle;rounded=0;orthogonalLoop=1;jettySize=auto;html=1;" edge="1" parent="k82Oito8XOEwwU88DEr8-16" source="k82Oito8XOEwwU88DEr8-23" target="k82Oito8XOEwwU88DEr8-27">
          <mxGeometry relative="1" as="geometry" />
        </mxCell>
        <mxCell id="k82Oito8XOEwwU88DEr8-23" value="" style="ellipse;shape=startState;fillColor=#000000;strokeColor=#ff0000;" vertex="1" parent="k82Oito8XOEwwU88DEr8-16">
          <mxGeometry x="93" y="32" width="30" height="30" as="geometry" />
        </mxCell>
        <mxCell id="k82Oito8XOEwwU88DEr8-29" value="" style="edgeStyle=orthogonalEdgeStyle;rounded=0;orthogonalLoop=1;jettySize=auto;html=1;" edge="1" parent="k82Oito8XOEwwU88DEr8-16" source="k82Oito8XOEwwU88DEr8-27" target="k82Oito8XOEwwU88DEr8-28">
          <mxGeometry relative="1" as="geometry" />
        </mxCell>
        <mxCell id="k82Oito8XOEwwU88DEr8-30" value="YES" style="edgeLabel;html=1;align=center;verticalAlign=middle;resizable=0;points=[];" vertex="1" connectable="0" parent="k82Oito8XOEwwU88DEr8-29">
          <mxGeometry x="0.1915" y="-1" relative="1" as="geometry">
            <mxPoint as="offset" />
          </mxGeometry>
        </mxCell>
        <mxCell id="k82Oito8XOEwwU88DEr8-42" style="edgeStyle=orthogonalEdgeStyle;rounded=0;orthogonalLoop=1;jettySize=auto;html=1;entryX=0;entryY=0.5;entryDx=0;entryDy=0;" edge="1" parent="k82Oito8XOEwwU88DEr8-16" source="k82Oito8XOEwwU88DEr8-27" target="k82Oito8XOEwwU88DEr8-33">
          <mxGeometry relative="1" as="geometry">
            <Array as="points">
              <mxPoint x="30" y="132" />
              <mxPoint x="30" y="547" />
            </Array>
          </mxGeometry>
        </mxCell>
        <mxCell id="k82Oito8XOEwwU88DEr8-43" value="NO" style="edgeLabel;html=1;align=center;verticalAlign=middle;resizable=0;points=[];" vertex="1" connectable="0" parent="k82Oito8XOEwwU88DEr8-42">
          <mxGeometry x="-0.9262" y="-4" relative="1" as="geometry">
            <mxPoint as="offset" />
          </mxGeometry>
        </mxCell>
        <mxCell id="k82Oito8XOEwwU88DEr8-27" value="&lt;div style=&quot;background-color:#ffffff;color:#080808&quot;&gt;&lt;pre style=&quot;font-family:&#39;Fira Code&#39;,monospace;font-size:9.8pt;&quot;&gt;isDirty&lt;/pre&gt;&lt;/div&gt;" style="rhombus;whiteSpace=wrap;html=1;" vertex="1" parent="k82Oito8XOEwwU88DEr8-16">
          <mxGeometry x="67.5" y="92" width="80" height="80" as="geometry" />
        </mxCell>
        <mxCell id="k82Oito8XOEwwU88DEr8-34" value="" style="edgeStyle=orthogonalEdgeStyle;rounded=0;orthogonalLoop=1;jettySize=auto;html=1;" edge="1" parent="k82Oito8XOEwwU88DEr8-16" source="k82Oito8XOEwwU88DEr8-28">
          <mxGeometry relative="1" as="geometry">
            <mxPoint x="107.5" y="402" as="targetPoint" />
          </mxGeometry>
        </mxCell>
        <mxCell id="k82Oito8XOEwwU88DEr8-41" value="YES" style="edgeLabel;html=1;align=center;verticalAlign=middle;resizable=0;points=[];" vertex="1" connectable="0" parent="k82Oito8XOEwwU88DEr8-34">
          <mxGeometry x="-0.7277" y="2" relative="1" as="geometry">
            <mxPoint as="offset" />
          </mxGeometry>
        </mxCell>
        <mxCell id="k82Oito8XOEwwU88DEr8-38" value="NO" style="edgeStyle=orthogonalEdgeStyle;rounded=0;orthogonalLoop=1;jettySize=auto;html=1;entryX=0.5;entryY=0;entryDx=0;entryDy=0;" edge="1" parent="k82Oito8XOEwwU88DEr8-16" source="k82Oito8XOEwwU88DEr8-28" target="k82Oito8XOEwwU88DEr8-40">
          <mxGeometry relative="1" as="geometry">
            <mxPoint x="249.5" y="245" as="targetPoint" />
            <Array as="points">
              <mxPoint x="208" y="245" />
              <mxPoint x="208" y="379" />
            </Array>
          </mxGeometry>
        </mxCell>
        <mxCell id="k82Oito8XOEwwU88DEr8-28" value="is Agreement Reached" style="rhombus;whiteSpace=wrap;" vertex="1" parent="k82Oito8XOEwwU88DEr8-16">
          <mxGeometry x="67.5" y="205" width="80" height="80" as="geometry" />
        </mxCell>
        <mxCell id="k82Oito8XOEwwU88DEr8-31" value="&lt;div style=&quot;background-color:#ffffff;color:#080808&quot;&gt;&lt;pre style=&quot;font-family:&#39;Fira Code&#39;,monospace;font-size:9.8pt;&quot;&gt;clearDirty&lt;/pre&gt;&lt;/div&gt;" style="rounded=1;whiteSpace=wrap;html=1;" vertex="1" parent="k82Oito8XOEwwU88DEr8-16">
          <mxGeometry x="50.5" y="312" width="120" height="60" as="geometry" />
        </mxCell>
        <mxCell id="k82Oito8XOEwwU88DEr8-35" value="" style="edgeStyle=orthogonalEdgeStyle;rounded=0;orthogonalLoop=1;jettySize=auto;html=1;" edge="1" parent="k82Oito8XOEwwU88DEr8-16" target="k82Oito8XOEwwU88DEr8-33">
          <mxGeometry relative="1" as="geometry">
            <mxPoint x="107.5" y="462" as="sourcePoint" />
          </mxGeometry>
        </mxCell>
        <mxCell id="k82Oito8XOEwwU88DEr8-32" value="&lt;div style=&quot;background-color:#ffffff;color:#080808&quot;&gt;&lt;pre style=&quot;font-family:&#39;Fira Code&#39;,monospace;font-size:9.8pt;&quot;&gt;putToLocalCache&lt;/pre&gt;&lt;/div&gt;" style="rounded=1;whiteSpace=wrap;html=1;" vertex="1" parent="k82Oito8XOEwwU88DEr8-16">
          <mxGeometry x="50.5" y="402" width="120" height="60" as="geometry" />
        </mxCell>
        <mxCell id="k82Oito8XOEwwU88DEr8-33" value="" style="ellipse;shape=endState;fillColor=#000000;strokeColor=#ff0000" vertex="1" parent="k82Oito8XOEwwU88DEr8-16">
          <mxGeometry x="92.5" y="532" width="30" height="30" as="geometry" />
        </mxCell>
        <mxCell id="k82Oito8XOEwwU88DEr8-40" value="Unexpected assignment error" style="rounded=1;whiteSpace=wrap;" vertex="1" parent="k82Oito8XOEwwU88DEr8-16">
          <mxGeometry x="147.5" y="472" width="120" height="60" as="geometry" />
        </mxCell>
        <mxCell id="k82Oito8XOEwwU88DEr8-17" value="S(cache.simpledemo.CLI)" style="swimlane;whiteSpace=wrap" vertex="1" parent="1">
          <mxGeometry x="721.5" y="128" width="280" height="572" as="geometry" />
        </mxCell>
        <mxCell id="k82Oito8XOEwwU88DEr8-25" style="edgeStyle=orthogonalEdgeStyle;rounded=0;orthogonalLoop=1;jettySize=auto;html=1;entryX=0;entryY=0.5;entryDx=0;entryDy=0;" edge="1" parent="1" source="k82Oito8XOEwwU88DEr8-19" target="k82Oito8XOEwwU88DEr8-23">
          <mxGeometry relative="1" as="geometry" />
        </mxCell>
        <mxCell id="k82Oito8XOEwwU88DEr8-26" value="put" style="edgeLabel;html=1;align=center;verticalAlign=middle;resizable=0;points=[];" vertex="1" connectable="0" parent="k82Oito8XOEwwU88DEr8-25">
          <mxGeometry x="0.7461" y="3" relative="1" as="geometry">
            <mxPoint as="offset" />
          </mxGeometry>
        </mxCell>
      </root>
    </mxGraphModel>
  </diagram>
  <diagram id="Gi29NI_yCljFODX1vEd-" name="onContentChanged">
    <mxGraphModel dx="1434" dy="784" grid="1" gridSize="10" guides="1" tooltips="1" connect="1" arrows="1" fold="1" page="1" pageScale="1" pageWidth="827" pageHeight="1169" math="0" shadow="0">
      <root>
        <mxCell id="0" />
        <mxCell id="1" parent="0" />
        <mxCell id="ZrpsHQVzRWjbztfIemo8-1" value="S(cache.simpledemo.CLI)" style="swimlane;whiteSpace=wrap" vertex="1" parent="1">
          <mxGeometry x="164.5" y="128" width="275.5" height="572" as="geometry" />
        </mxCell>
        <mxCell id="ZrpsHQVzRWjbztfIemo8-2" value="" style="ellipse;shape=startState;fillColor=#000000;strokeColor=#ff0000;" vertex="1" parent="ZrpsHQVzRWjbztfIemo8-1">
          <mxGeometry x="128" y="40" width="30" height="30" as="geometry" />
        </mxCell>
        <mxCell id="ZrpsHQVzRWjbztfIemo8-7" value="" style="edgeStyle=orthogonalEdgeStyle;rounded=0;orthogonalLoop=1;jettySize=auto;html=1;" edge="1" parent="ZrpsHQVzRWjbztfIemo8-1" target="ZrpsHQVzRWjbztfIemo8-13">
          <mxGeometry relative="1" as="geometry">
            <mxPoint x="142" y="152" as="sourcePoint" />
            <mxPoint x="142.5" y="262" as="targetPoint" />
          </mxGeometry>
        </mxCell>
        <mxCell id="ZrpsHQVzRWjbztfIemo8-8" value="center = get center" style="rounded=1;whiteSpace=wrap;" vertex="1" parent="ZrpsHQVzRWjbztfIemo8-1">
          <mxGeometry x="83" y="92" width="120" height="60" as="geometry" />
        </mxCell>
        <mxCell id="ZrpsHQVzRWjbztfIemo8-12" value="" style="edgeStyle=orthogonalEdgeStyle;rounded=0;orthogonalLoop=1;jettySize=auto;html=1;" edge="1" parent="ZrpsHQVzRWjbztfIemo8-1" source="ZrpsHQVzRWjbztfIemo8-13" target="ZrpsHQVzRWjbztfIemo8-14">
          <mxGeometry relative="1" as="geometry" />
        </mxCell>
        <mxCell id="ZrpsHQVzRWjbztfIemo8-13" value="&lt;div style=&quot;background-color:#ffffff;color:#080808&quot;&gt;&lt;pre style=&quot;font-family:&#39;Fira Code&#39;,monospace;font-size:9.8pt;&quot;&gt;notify center&lt;/pre&gt;&lt;/div&gt;" style="rounded=1;whiteSpace=wrap;html=1;" vertex="1" parent="ZrpsHQVzRWjbztfIemo8-1">
          <mxGeometry x="83" y="202" width="120" height="60" as="geometry" />
        </mxCell>
        <mxCell id="ZrpsHQVzRWjbztfIemo8-14" value="" style="ellipse;shape=endState;fillColor=#000000;strokeColor=#ff0000" vertex="1" parent="ZrpsHQVzRWjbztfIemo8-1">
          <mxGeometry x="128" y="302" width="30" height="30" as="geometry" />
        </mxCell>
        <mxCell id="ZrpsHQVzRWjbztfIemo8-15" value="" style="edgeStyle=orthogonalEdgeStyle;rounded=0;orthogonalLoop=1;jettySize=auto;html=1;" edge="1" parent="ZrpsHQVzRWjbztfIemo8-1">
          <mxGeometry relative="1" as="geometry">
            <mxPoint x="142.5" y="62" as="sourcePoint" />
            <mxPoint x="142.5" y="92" as="targetPoint" />
          </mxGeometry>
        </mxCell>
        <mxCell id="ZrpsHQVzRWjbztfIemo8-16" value="R(Center)" style="swimlane;whiteSpace=wrap" vertex="1" parent="1">
          <mxGeometry x="440.5" y="128" width="280" height="572" as="geometry">
            <mxRectangle x="440.5" y="128" width="90" height="30" as="alternateBounds" />
          </mxGeometry>
        </mxCell>
        <mxCell id="ZrpsHQVzRWjbztfIemo8-18" value="" style="ellipse;shape=startState;fillColor=#000000;strokeColor=#ff0000;" vertex="1" parent="ZrpsHQVzRWjbztfIemo8-16">
          <mxGeometry x="125" y="40" width="30" height="30" as="geometry" />
        </mxCell>
        <mxCell id="ZrpsHQVzRWjbztfIemo8-19" value="" style="edgeStyle=orthogonalEdgeStyle;rounded=0;orthogonalLoop=1;jettySize=auto;html=1;" edge="1" parent="ZrpsHQVzRWjbztfIemo8-16" source="ZrpsHQVzRWjbztfIemo8-23" target="ZrpsHQVzRWjbztfIemo8-28">
          <mxGeometry relative="1" as="geometry" />
        </mxCell>
        <mxCell id="ZrpsHQVzRWjbztfIemo8-20" value="YES" style="edgeLabel;html=1;align=center;verticalAlign=middle;resizable=0;points=[];" vertex="1" connectable="0" parent="ZrpsHQVzRWjbztfIemo8-19">
          <mxGeometry x="-0.0638" y="2" relative="1" as="geometry">
            <mxPoint as="offset" />
          </mxGeometry>
        </mxCell>
        <mxCell id="ZrpsHQVzRWjbztfIemo8-21" style="edgeStyle=orthogonalEdgeStyle;rounded=0;orthogonalLoop=1;jettySize=auto;html=1;" edge="1" parent="ZrpsHQVzRWjbztfIemo8-16" source="ZrpsHQVzRWjbztfIemo8-23" target="ZrpsHQVzRWjbztfIemo8-31">
          <mxGeometry relative="1" as="geometry">
            <Array as="points">
              <mxPoint x="40" y="136" />
              <mxPoint x="40" y="517" />
            </Array>
            <mxPoint x="100" y="130" as="sourcePoint" />
            <mxPoint x="125.35786437626894" y="393" as="targetPoint" />
          </mxGeometry>
        </mxCell>
        <mxCell id="ZrpsHQVzRWjbztfIemo8-22" value="NO" style="edgeLabel;html=1;align=center;verticalAlign=middle;resizable=0;points=[];" vertex="1" connectable="0" parent="ZrpsHQVzRWjbztfIemo8-21">
          <mxGeometry x="-0.8641" y="-1" relative="1" as="geometry">
            <mxPoint as="offset" />
          </mxGeometry>
        </mxCell>
        <mxCell id="ZrpsHQVzRWjbztfIemo8-23" value="is not Dirty and is not on changing" style="rhombus;whiteSpace=wrap;" vertex="1" parent="ZrpsHQVzRWjbztfIemo8-16">
          <mxGeometry x="100" y="96" width="80" height="80" as="geometry" />
        </mxCell>
        <mxCell id="ZrpsHQVzRWjbztfIemo8-24" value="" style="edgeStyle=orthogonalEdgeStyle;rounded=0;orthogonalLoop=1;jettySize=auto;html=1;" edge="1" parent="ZrpsHQVzRWjbztfIemo8-16" target="ZrpsHQVzRWjbztfIemo8-23">
          <mxGeometry relative="1" as="geometry">
            <mxPoint x="140.5" y="66" as="sourcePoint" />
          </mxGeometry>
        </mxCell>
        <mxCell id="FN070ooC6f0uuDKUHgch-3" value="" style="edgeStyle=orthogonalEdgeStyle;rounded=0;orthogonalLoop=1;jettySize=auto;html=1;" edge="1" parent="ZrpsHQVzRWjbztfIemo8-16" source="ZrpsHQVzRWjbztfIemo8-26" target="FN070ooC6f0uuDKUHgch-2">
          <mxGeometry relative="1" as="geometry" />
        </mxCell>
        <mxCell id="ZrpsHQVzRWjbztfIemo8-26" value="clear Agreement Flag" style="rounded=1;whiteSpace=wrap;" vertex="1" parent="ZrpsHQVzRWjbztfIemo8-16">
          <mxGeometry x="79.5" y="289" width="120" height="60" as="geometry" />
        </mxCell>
        <mxCell id="ZrpsHQVzRWjbztfIemo8-27" value="" style="edgeStyle=orthogonalEdgeStyle;rounded=0;orthogonalLoop=1;jettySize=auto;html=1;" edge="1" parent="ZrpsHQVzRWjbztfIemo8-16">
          <mxGeometry relative="1" as="geometry">
            <mxPoint x="138.5" y="259" as="sourcePoint" />
            <mxPoint x="139.5" y="289" as="targetPoint" />
          </mxGeometry>
        </mxCell>
        <mxCell id="ZrpsHQVzRWjbztfIemo8-28" value="set on changing" style="rounded=1;whiteSpace=wrap;" vertex="1" parent="ZrpsHQVzRWjbztfIemo8-16">
          <mxGeometry x="79.5" y="199" width="120" height="60" as="geometry" />
        </mxCell>
        <mxCell id="ZrpsHQVzRWjbztfIemo8-31" value="" style="ellipse;shape=endState;fillColor=#000000;strokeColor=#ff0000" vertex="1" parent="ZrpsHQVzRWjbztfIemo8-16">
          <mxGeometry x="125" y="502" width="30" height="30" as="geometry" />
        </mxCell>
        <mxCell id="ZrpsHQVzRWjbztfIemo8-32" value="" style="edgeStyle=orthogonalEdgeStyle;rounded=0;orthogonalLoop=1;jettySize=auto;html=1;entryX=0.5;entryY=0;entryDx=0;entryDy=0;" edge="1" parent="ZrpsHQVzRWjbztfIemo8-16" target="ZrpsHQVzRWjbztfIemo8-31">
          <mxGeometry relative="1" as="geometry">
            <mxPoint x="140" y="349" as="sourcePoint" />
            <mxPoint x="140" y="369" as="targetPoint" />
          </mxGeometry>
        </mxCell>
        <mxCell id="FN070ooC6f0uuDKUHgch-2" value="" style="html=1;points=[[0,0,0,0,5],[0,1,0,0,-5],[1,0,0,0,5],[1,1,0,0,-5]];perimeter=orthogonalPerimeter;outlineConnect=0;targetShapes=umlLifeline;portConstraint=eastwest;newEdgeStyle={&quot;curved&quot;:0,&quot;rounded&quot;:0};strokeColor=#006EAF;fillColor=#1ba1e2;fontColor=#ffffff;" vertex="1" parent="ZrpsHQVzRWjbztfIemo8-16">
          <mxGeometry x="249.5" y="279" width="10" height="80" as="geometry" />
        </mxCell>
        <mxCell id="FN070ooC6f0uuDKUHgch-4" value="notify All PrepareDirty" style="rounded=1;whiteSpace=wrap;html=1;" vertex="1" parent="ZrpsHQVzRWjbztfIemo8-16">
          <mxGeometry x="80.5" y="397" width="120" height="60" as="geometry" />
        </mxCell>
        <mxCell id="ZrpsHQVzRWjbztfIemo8-33" value="C(Client)" style="swimlane;whiteSpace=wrap" vertex="1" parent="1">
          <mxGeometry x="721.5" y="128" width="280" height="572" as="geometry" />
        </mxCell>
        <mxCell id="ZrpsHQVzRWjbztfIemo8-34" value="" style="edgeStyle=orthogonalEdgeStyle;rounded=0;orthogonalLoop=1;jettySize=auto;html=1;" edge="1" parent="ZrpsHQVzRWjbztfIemo8-33" source="ZrpsHQVzRWjbztfIemo8-35" target="ZrpsHQVzRWjbztfIemo8-37">
          <mxGeometry relative="1" as="geometry" />
        </mxCell>
        <mxCell id="ZrpsHQVzRWjbztfIemo8-35" value="" style="ellipse;shape=startState;fillColor=#000000;strokeColor=#ff0000;" vertex="1" parent="ZrpsHQVzRWjbztfIemo8-33">
          <mxGeometry x="125" y="40" width="30" height="30" as="geometry" />
        </mxCell>
        <mxCell id="ZrpsHQVzRWjbztfIemo8-36" value="" style="edgeStyle=orthogonalEdgeStyle;rounded=0;orthogonalLoop=1;jettySize=auto;html=1;" edge="1" parent="ZrpsHQVzRWjbztfIemo8-33" source="ZrpsHQVzRWjbztfIemo8-37" target="ZrpsHQVzRWjbztfIemo8-38">
          <mxGeometry relative="1" as="geometry" />
        </mxCell>
        <mxCell id="ZrpsHQVzRWjbztfIemo8-37" value="cache.setPrepareDirty" style="rounded=1;whiteSpace=wrap;" vertex="1" parent="ZrpsHQVzRWjbztfIemo8-33">
          <mxGeometry x="80.5" y="102" width="120" height="60" as="geometry" />
        </mxCell>
        <mxCell id="ZrpsHQVzRWjbztfIemo8-38" value="" style="ellipse;shape=endState;fillColor=#000000;strokeColor=#ff0000" vertex="1" parent="ZrpsHQVzRWjbztfIemo8-33">
          <mxGeometry x="125.5" y="202" width="30" height="30" as="geometry" />
        </mxCell>
        <mxCell id="ZrpsHQVzRWjbztfIemo8-39" style="edgeStyle=orthogonalEdgeStyle;rounded=0;orthogonalLoop=1;jettySize=auto;html=1;entryX=0;entryY=0.5;entryDx=0;entryDy=0;" edge="1" parent="1" target="ZrpsHQVzRWjbztfIemo8-18">
          <mxGeometry relative="1" as="geometry">
            <mxPoint x="370" y="360" as="sourcePoint" />
          </mxGeometry>
        </mxCell>
        <mxCell id="ZrpsHQVzRWjbztfIemo8-40" value="onCacheChanged" style="edgeLabel;align=center;verticalAlign=middle;resizable=0;points=[];" vertex="1" connectable="0" parent="ZrpsHQVzRWjbztfIemo8-39">
          <mxGeometry x="0.6801" y="1" relative="1" as="geometry">
            <mxPoint as="offset" />
          </mxGeometry>
        </mxCell>
        <mxCell id="ZrpsHQVzRWjbztfIemo8-41" style="edgeStyle=orthogonalEdgeStyle;rounded=0;orthogonalLoop=1;jettySize=auto;html=1;entryX=0;entryY=0.5;entryDx=0;entryDy=0;" edge="1" parent="1" source="FN070ooC6f0uuDKUHgch-2" target="ZrpsHQVzRWjbztfIemo8-35">
          <mxGeometry relative="1" as="geometry">
            <mxPoint x="700" y="447" as="sourcePoint" />
            <Array as="points">
              <mxPoint x="774" y="420" />
              <mxPoint x="774" y="183" />
            </Array>
          </mxGeometry>
        </mxCell>
      </root>
    </mxGraphModel>
  </diagram>
</mxfile>
